<mxfile host="app.diagrams.net" modified="2023-11-11T16:07:30.630Z" agent="Mozilla/5.0 (Windows NT 10.0; Win64; x64) AppleWebKit/537.36 (KHTML, like Gecko) Chrome/119.0.0.0 Safari/537.36" etag="_JpP6Wwy1v_kuzEW5TQN" version="22.1.0" type="github">
  <diagram name="Page-1" id="74e2e168-ea6b-b213-b513-2b3c1d86103e">
    <mxGraphModel dx="882" dy="507" grid="1" gridSize="10" guides="1" tooltips="1" connect="1" arrows="1" fold="1" page="1" pageScale="1" pageWidth="1100" pageHeight="850" background="none" math="0" shadow="0">
      <root>
        <mxCell id="0" />
        <mxCell id="1" parent="0" />
        <mxCell id="77e6c97f196da883-1" value="UniKL Club Proposal Management System" style="swimlane;html=1;childLayout=stackLayout;startSize=20;rounded=0;shadow=0;labelBackgroundColor=none;strokeWidth=1;fontFamily=Verdana;fontSize=8;align=center;" parent="1" vertex="1">
          <mxGeometry x="70" y="40" width="480" height="750" as="geometry" />
        </mxCell>
        <mxCell id="77e6c97f196da883-2" value="Club Representative" style="swimlane;html=1;startSize=20;" parent="77e6c97f196da883-1" vertex="1">
          <mxGeometry y="20" width="160" height="730" as="geometry" />
        </mxCell>
        <mxCell id="77e6c97f196da883-8" value="Upload Proposal" style="rounded=1;whiteSpace=wrap;html=1;shadow=0;labelBackgroundColor=none;strokeWidth=1;fontFamily=Verdana;fontSize=11;align=center;fillColor=none;" parent="77e6c97f196da883-2" vertex="1">
          <mxGeometry x="20" y="134" width="100" height="60" as="geometry" />
        </mxCell>
        <mxCell id="FyyOHg6en1WBjDl6B92Y-6" style="edgeStyle=orthogonalEdgeStyle;rounded=0;orthogonalLoop=1;jettySize=auto;html=1;entryX=0.5;entryY=1;entryDx=0;entryDy=0;" edge="1" parent="77e6c97f196da883-2" source="77e6c97f196da883-12" target="77e6c97f196da883-8">
          <mxGeometry relative="1" as="geometry" />
        </mxCell>
        <mxCell id="77e6c97f196da883-12" value="Amend Proposal" style="rounded=1;whiteSpace=wrap;html=1;shadow=0;labelBackgroundColor=none;strokeWidth=1;fontFamily=Verdana;fontSize=11;align=center;fillColor=none;" parent="77e6c97f196da883-2" vertex="1">
          <mxGeometry x="20" y="249" width="100" height="60" as="geometry" />
        </mxCell>
        <mxCell id="FyyOHg6en1WBjDl6B92Y-10" style="edgeStyle=orthogonalEdgeStyle;rounded=0;orthogonalLoop=1;jettySize=auto;html=1;entryX=0.5;entryY=0;entryDx=0;entryDy=0;" edge="1" parent="77e6c97f196da883-2" source="FyyOHg6en1WBjDl6B92Y-9" target="77e6c97f196da883-8">
          <mxGeometry relative="1" as="geometry" />
        </mxCell>
        <mxCell id="FyyOHg6en1WBjDl6B92Y-9" value="Start" style="strokeWidth=1;html=1;shape=mxgraph.flowchart.start_1;whiteSpace=wrap;fillColor=none;" vertex="1" parent="77e6c97f196da883-2">
          <mxGeometry x="20" y="50" width="100" height="50" as="geometry" />
        </mxCell>
        <mxCell id="77e6c97f196da883-26" style="edgeStyle=orthogonalEdgeStyle;rounded=1;html=1;labelBackgroundColor=none;startArrow=none;startFill=0;startSize=5;endArrow=classicThin;endFill=1;endSize=5;jettySize=auto;orthogonalLoop=1;strokeWidth=1;fontFamily=Verdana;fontSize=8" parent="77e6c97f196da883-1" source="77e6c97f196da883-8" target="77e6c97f196da883-11" edge="1">
          <mxGeometry relative="1" as="geometry" />
        </mxCell>
        <mxCell id="77e6c97f196da883-3" value="SRC" style="swimlane;html=1;startSize=20;" parent="77e6c97f196da883-1" vertex="1">
          <mxGeometry x="160" y="20" width="160" height="730" as="geometry" />
        </mxCell>
        <mxCell id="FyyOHg6en1WBjDl6B92Y-1" style="edgeStyle=orthogonalEdgeStyle;rounded=0;orthogonalLoop=1;jettySize=auto;html=1;entryX=0.5;entryY=0;entryDx=0;entryDy=0;" edge="1" parent="77e6c97f196da883-3" source="77e6c97f196da883-11" target="77e6c97f196da883-13">
          <mxGeometry relative="1" as="geometry" />
        </mxCell>
        <mxCell id="77e6c97f196da883-11" value="Check Proposal" style="rounded=1;whiteSpace=wrap;html=1;shadow=0;labelBackgroundColor=none;strokeWidth=1;fontFamily=Verdana;fontSize=11;align=center;fillColor=none;" parent="77e6c97f196da883-3" vertex="1">
          <mxGeometry x="30" y="134" width="100" height="60" as="geometry" />
        </mxCell>
        <mxCell id="FyyOHg6en1WBjDl6B92Y-5" style="edgeStyle=orthogonalEdgeStyle;rounded=0;orthogonalLoop=1;jettySize=auto;html=1;entryX=0.5;entryY=0;entryDx=0;entryDy=0;" edge="1" parent="77e6c97f196da883-3" source="77e6c97f196da883-13" target="FyyOHg6en1WBjDl6B92Y-4">
          <mxGeometry relative="1" as="geometry" />
        </mxCell>
        <mxCell id="FyyOHg6en1WBjDl6B92Y-7" value="No" style="edgeLabel;html=1;align=center;verticalAlign=middle;resizable=0;points=[];" vertex="1" connectable="0" parent="FyyOHg6en1WBjDl6B92Y-5">
          <mxGeometry x="-0.1363" y="1" relative="1" as="geometry">
            <mxPoint as="offset" />
          </mxGeometry>
        </mxCell>
        <mxCell id="77e6c97f196da883-13" value="Need &lt;br style=&quot;font-size: 11px;&quot;&gt;Amendment?" style="rhombus;whiteSpace=wrap;html=1;rounded=0;shadow=0;labelBackgroundColor=none;strokeWidth=1;fontFamily=Verdana;fontSize=11;align=center;fillColor=none;" parent="77e6c97f196da883-3" vertex="1">
          <mxGeometry x="27.5" y="239" width="105" height="80" as="geometry" />
        </mxCell>
        <mxCell id="FyyOHg6en1WBjDl6B92Y-4" value="Finalize Budget and Approve Proposal" style="rounded=1;whiteSpace=wrap;html=1;shadow=0;labelBackgroundColor=none;strokeWidth=1;fontFamily=Verdana;fontSize=11;align=center;fillColor=none;" vertex="1" parent="77e6c97f196da883-3">
          <mxGeometry x="30" y="369" width="100" height="60" as="geometry" />
        </mxCell>
        <mxCell id="77e6c97f196da883-4" value="Approver" style="swimlane;html=1;startSize=20;" parent="77e6c97f196da883-1" vertex="1">
          <mxGeometry x="320" y="20" width="160" height="730" as="geometry" />
        </mxCell>
        <mxCell id="77e6c97f196da883-14" value="Check Proposal" style="rounded=1;whiteSpace=wrap;html=1;shadow=0;labelBackgroundColor=none;strokeWidth=1;fontFamily=Verdana;fontSize=11;align=center;fillColor=none;" parent="77e6c97f196da883-4" vertex="1">
          <mxGeometry x="30" y="369" width="100" height="60" as="geometry" />
        </mxCell>
        <mxCell id="77e6c97f196da883-10" value="" style="rounded=1;whiteSpace=wrap;html=1;shadow=0;labelBackgroundColor=none;strokeWidth=1;fontFamily=Verdana;fontSize=8;align=center;fillColor=none;" parent="77e6c97f196da883-4" vertex="1">
          <mxGeometry x="30" y="483" width="100" height="60" as="geometry" />
        </mxCell>
        <mxCell id="FyyOHg6en1WBjDl6B92Y-2" style="edgeStyle=orthogonalEdgeStyle;rounded=0;orthogonalLoop=1;jettySize=auto;html=1;entryX=1;entryY=0.5;entryDx=0;entryDy=0;" edge="1" parent="77e6c97f196da883-1" source="77e6c97f196da883-13" target="77e6c97f196da883-12">
          <mxGeometry relative="1" as="geometry" />
        </mxCell>
        <mxCell id="FyyOHg6en1WBjDl6B92Y-3" value="Yes" style="edgeLabel;html=1;align=center;verticalAlign=middle;resizable=0;points=[];" vertex="1" connectable="0" parent="FyyOHg6en1WBjDl6B92Y-2">
          <mxGeometry x="0.1091" y="-1" relative="1" as="geometry">
            <mxPoint as="offset" />
          </mxGeometry>
        </mxCell>
        <mxCell id="FyyOHg6en1WBjDl6B92Y-8" style="edgeStyle=orthogonalEdgeStyle;rounded=0;orthogonalLoop=1;jettySize=auto;html=1;entryX=0;entryY=0.5;entryDx=0;entryDy=0;" edge="1" parent="77e6c97f196da883-1" source="FyyOHg6en1WBjDl6B92Y-4" target="77e6c97f196da883-14">
          <mxGeometry relative="1" as="geometry" />
        </mxCell>
      </root>
    </mxGraphModel>
  </diagram>
</mxfile>
